<?xml version="1.0" encoding="utf-8"?>
<!-- Generator: Adobe Illustrator 24.0.2, SVG Export Plug-In . SVG Version: 6.00 Build 0)  -->
<svg version="1.1" id="레이어_1" xmlns="http://www.w3.org/2000/svg" xmlns:xlink="http://www.w3.org/1999/xlink" x="0px"
	 y="0px" viewBox="0 0 949 256" style="enable-background:new 0 0 949 256;" xml:space="preserve">
<style type="text/css">
	.st0{fill:#DB3916;}
	.st1{fill:#FC5A37;}
	.st2{fill:#FE843F;}
	.st3{fill:#FFAE46;}
	.st4{fill:#FFC85F;}
	.st5{fill:#FFE278;}
	.st6{fill:#2FA157;}
	.st7{fill:#47BF70;}
	.st8{fill:#12B5FF;}
	.st9{fill:#48D9FF;}
	.st10{fill:#487ED2;}
	.st11{fill:#73A7E6;}
	.st12{fill:#9AD1B3;}
	.st13{fill:#DE5C25;}
	.st14{fill:#EFB736;}
	.st15{fill:#68A543;}
</style>
<path class="st0" d="M264,3.8v26.9l-31.9,16L248,0.5c4-0.3,8-0.4,11.9-0.5C262-0.2,263.8,1.5,264,3.8z"/>
<path class="st1" d="M248.1,0.3v30.9l-216.3,224H4c-2.1,0.1-3.9-1.6-4-3.8v-0.1C2.1,117.3,111,8.3,248.1,0.3L248.1,0.3z"/>
<path class="st2" d="M264,30.7v30.8l-31.9,16.1L248,31.4C253.3,30.9,258.6,30.7,264,30.7z"/>
<path class="st3" d="M248.1,31.2v30.9L63.7,255.3H31.8C31.8,136.6,127.5,39.2,248.1,31.2z"/>
<path class="st4" d="M264,61.6v30.8l-31.9,16.2L248,62.2C253.3,61.8,258.7,61.6,264,61.6z"/>
<path class="st5" d="M248.1,62.2v30.9c0,0-152.5,166-152.5,162.2H63.7C63.7,153.6,145.1,70,248.1,62.2z"/>
<path class="st6" d="M264,92.4v30.8l-92.2,66.4L248,93.1C253.3,92.6,258.6,92.4,264,92.4z"/>
<path class="st7" d="M248.1,93.1V124l-76.2,65.6l-44.4,65.6H95.6C95.6,170.6,162.6,100.9,248.1,93.1z"/>
<path class="st8" d="M264,123.2V154l-39.8,26.7l23.9-56.8C253.3,123.4,258.7,123.1,264,123.2L264,123.2z"/>
<path class="st9" d="M248.1,124v31.2l-88.6,100.1h-32C127.5,187.6,180.3,131.7,248.1,124z"/>
<path class="st10" d="M264,154v27c-0.1,2.2-1.8,3.9-3.8,3.9c-4.1,0.2-8.2,0.7-12.2,1.6l-15.9-15.7l15.9-15.7
	C253.3,154.4,258.7,154,264,154z"/>
<path class="st11" d="M248.1,155.2v31.3c-31.3,6.8-55,33.1-56.7,65c-0.2,2.2-2,3.7-4,3.7h-27.9C159.4,204.7,197.9,162.6,248.1,155.2
	z"/>
<path class="st12" d="M362.6,64h-35.9c-6.8,0-12.6,1.5-17.2,4.5c-4.6,3-7,7.3-7,12.9v35.2L362.6,64z"/>
<path class="st13" d="M302.4,174.1l42.4-37.1V93.1c0-1.8,1.2-2.7,3.7-2.7h22.3c8.7,0,15-8.2,12.7-16.6v0C382,68,376.8,64,370.9,64
	h-8.3l-60.1,52.6V174.1z"/>
<path class="st14" d="M302.4,183.6c0,7.8,2.4,13.4,7.1,16.8c4.4,3.2,12,4.8,22.8,5.1l30.1-26.3h-13.9c-2.5,0-3.7-0.9-3.7-2.7V137
	l-42.4,37.1V183.6z"/>
<path class="st15" d="M334.6,205.5h36.1c5.9,0,11.1-3.9,12.7-9.6c2.4-8.4-4-16.7-12.7-16.7h-8.3l-30.1,26.3
	C333.1,205.5,333.8,205.5,334.6,205.5z"/>
<path class="st12" d="M451.4,63.6h-36.6c-9.7,0-16.7,1.7-21.2,5c-4.5,3.3-6.7,7.8-6.7,13.4v38L451.4,63.6z"/>
<path class="st13" d="M387,177.5l41.5-36.3v-50c0-1.8,1.2-2.7,3.7-2.7h16.2c2.5,0,3.7,0.9,3.7,2.7v29.4L494,83.9V82
	c0-5.6-2.2-10-6.7-13.4c-4.5-3.3-11.5-5-21.2-5h-14.7L387,120V177.5z"/>
<path class="st14" d="M448.2,180.3h-15.6c-1.7,0-2.8-0.2-3.3-0.7c-0.5-0.5-0.7-1.2-0.7-2.2v-36.2L387,177.5v7.5
	c0,2.7,0.5,5.3,1.4,7.7c0.9,2.4,2.6,4.5,4.8,6.3c2.3,1.8,5.3,3.3,9.1,4.4c3.8,1.1,8.5,1.7,14.2,1.7h4.6l28.4-24.8
	C449.2,180.3,448.7,180.3,448.2,180.3z"/>
<path class="st14" d="M452.2,177.4c0,0.2,0,0.4,0,0.6l41.9-36.6V83.9l-41.8,36.6V177.4z"/>
<path class="st15" d="M451.4,179.6c-0.3,0.3-1,0.5-1.9,0.6l-28.4,24.8h43.2c5.7,0,10.4-0.6,14.2-1.7c3.8-1.1,6.8-2.6,9.1-4.4
	c2.3-1.8,3.9-3.9,4.8-6.3c0.9-2.4,1.4-5,1.4-7.7v-43.6L452.1,178C452,178.8,451.8,179.3,451.4,179.6z"/>
<path class="st12" d="M542.4,84.7c0-11.6-9.4-21.1-21.1-21.1c-11.6,0-21.1,9.4-21.1,21.1v39.7l42.1-36.8V84.7z"/>
<polygon class="st13" points="542.4,87.6 500.3,124.4 500.3,181.9 542.4,145.1 "/>
<path class="st13" d="M607,84.7c0-11.6-9.4-21.1-21.1-21.1h0c-11.6,0-21.1,9.4-21.1,21.1v40.7L607,88.6V84.7z"/>
<path class="st14" d="M607,88.6l-42.1,36.8v51.8c0,1-0.2,1.8-0.7,2.3c-0.5,0.5-1.6,0.8-3.3,0.8h-14.5c-1.7,0-2.8-0.3-3.3-0.8
	c-0.5-0.5-0.7-1.3-0.7-2.3v-32.1l-42.1,36.8v1.3c0,7.8,2.4,13.4,7.1,16.8c4.7,3.4,13.1,5.1,25,5.1h7.1l67.5-59V88.6z"/>
<path class="st15" d="M539.5,205.1h35.3c11.9,0,20.3-1.7,25-5.1c4.7-3.4,7.1-9,7.1-16.8v-37.2L539.5,205.1z"/>
<path class="st12" d="M654.8,94.8v-0.4c0-1.8,1.2-2.7,3.5-2.7l30-26.2c-0.6-0.1-1.2-0.1-1.8-0.1h-48.8c-8.2,0-14.3,1.6-18.3,4.7
	c-4.1,3.1-6.1,7.3-6.1,12.5v48.6L654.8,94.8z"/>
<path class="st13" d="M613.3,184.9c0,1.2,0.1,2.4,0.2,3.5l41.3-36.2V94.8l-41.5,36.3V184.9z"/>
<path class="st13" d="M680.5,129.8l2.8-2.4C682.2,128,681.3,128.8,680.5,129.8z"/>
<path class="st13" d="M658.5,91.6h28c8.7,0,15-8.2,12.7-16.6c-1.4-5.2-5.8-8.9-10.9-9.6l-30,26.2C658.4,91.6,658.5,91.6,658.5,91.6z
	"/>
<path class="st14" d="M620.4,201.7c4.7,3.4,13.1,5.1,25,5.1h12.8l59.2-51.8v-16.6c0-7.3-5.9-13.2-13.2-13.2h-13.8
	c-2.7,0-5.1,0.8-7.2,2.1l-2.8,2.4c-2,2.3-3.2,5.3-3.2,8.6v29.5c0,7.3-5.9,13.2-13.2,13.2h-5.6c-2.5,0-3.7-0.9-3.7-2.7v-26
	l-41.3,36.2C614.1,194.4,616.4,198.8,620.4,201.7z"/>
<path class="st15" d="M704.2,206.8c7.3,0,13.2-5.9,13.2-13.2V155l-59.2,51.8H704.2z"/>
<path class="st12" d="M800.9,70.9c-1.3-2.8-4-4.6-7.2-4.6h-31.9c-3.6,0-6.7,2.4-7.6,5.9l-13.6,51.5L800.9,70.9z"/>
<path class="st13" d="M721.1,197.9c0,0.2-0.1,0.3-0.1,0.5l92.4-80.8l-11.9-45.4c-0.1-0.4-0.3-0.9-0.5-1.3l-60.3,52.8L721.1,197.9z"
	/>
<path class="st14" d="M728.7,207.8h24.9c3.7,0,7-2.6,7.7-6.3l1.1-5c0.8-3.7,4-6.3,7.7-6.3h15.4c2.7,0,5.1,1.4,6.5,3.5l33.6-29.4
	l-12.3-46.7L721,198.4C720,203.2,723.7,207.8,728.7,207.8z M770,158.4L770,158.4c1.6-8.6,13.9-8.5,15.5,0l0,0
	c0.9,4.9-2.8,9.3-7.8,9.3C772.8,167.8,769.1,163.3,770,158.4z"/>
<path class="st15" d="M793.2,196.5l1.1,5c0.8,3.7,4,6.3,7.7,6.3h24.9c5.2,0,8.9-4.9,7.6-9.9l-8.9-33.6L792,193.7
	C792.5,194.5,792.9,195.5,793.2,196.5z"/>
<path class="st12" d="M845,66.3c-1.8,0-3.3,1.5-3.3,3.3v55.8l67.5-59H845z"/>
<path class="st13" d="M886.3,139.9c-1.8,0-3.3-1.5-3.3-3.3V94.4c0-1.8,1.5-3.3,3.3-3.3h16.9c2.7,0,4,1,4,2.9v34.2l40.7-35.6v-8
	c0-5.6-2.2-10-6.7-13.4c-4.5-3.3-11.5-5-21.2-5h-10.8l-67.5,59v60.1l52.1-45.6H886.3z"/>
<path class="st14" d="M931.5,167.1c-1-2,0.3-4.4,2.6-4.7c1.3-0.2,2.6-0.4,3.7-0.8l9.6-8.4c0.3-1,0.5-2,0.5-3V92.6l-40.7,35.6v8.7
	c0,2-1.3,2.9-4,2.9h-9.3l-52.1,45.6v19c0,1.8,1.5,3.3,3.3,3.3h34.7c1.8,0,3.3-1.5,3.3-3.3V166c0-1.8,1.5-3.3,3.3-3.3
	c1.3,0,2.5,0.8,3,2l12.5,28.4L931.5,167.1L931.5,167.1z"/>
<path class="st15" d="M910.5,207.8h35.3c2.4,0,4-2.5,3-4.7l-17.3-36l-29.7,26l5.6,12.8C908,207,909.2,207.8,910.5,207.8z"/>
<path class="st15" d="M943.2,158.8c2.1-1.7,3.5-3.6,4.2-5.6l-9.6,8.4C939.9,161,941.7,160,943.2,158.8z"/>
</svg>
